<mxfile host="65bd71144e">
    <diagram name="Polimorfismo" id="WrhkKS1NCgMQSTT_F4kI">
        <mxGraphModel dx="478" dy="437" grid="1" gridSize="10" guides="1" tooltips="1" connect="1" arrows="1" fold="1" page="1" pageScale="1" pageWidth="1169" pageHeight="827" math="0" shadow="0">
            <root>
                <mxCell id="28rAnF6bt6Dn-hRfDJhw-0"/>
                <mxCell id="28rAnF6bt6Dn-hRfDJhw-1" parent="28rAnF6bt6Dn-hRfDJhw-0"/>
                <mxCell id="28rAnF6bt6Dn-hRfDJhw-2" style="edgeStyle=elbowEdgeStyle;html=1;elbow=vertical;endArrow=block;endFill=0;endSize=10;entryX=0.333;entryY=1;entryDx=0;entryDy=0;entryPerimeter=0;dashed=1;" parent="28rAnF6bt6Dn-hRfDJhw-1" source="28rAnF6bt6Dn-hRfDJhw-4" target="28rAnF6bt6Dn-hRfDJhw-30" edge="1">
                    <mxGeometry relative="1" as="geometry">
                        <mxPoint x="240" y="240" as="targetPoint"/>
                    </mxGeometry>
                </mxCell>
                <mxCell id="28rAnF6bt6Dn-hRfDJhw-3" style="edgeStyle=elbowEdgeStyle;elbow=vertical;html=1;endArrow=diamond;endFill=1;endSize=10;entryX=0.25;entryY=0;entryDx=0;entryDy=0;" parent="28rAnF6bt6Dn-hRfDJhw-1" source="28rAnF6bt6Dn-hRfDJhw-4" target="28rAnF6bt6Dn-hRfDJhw-19" edge="1">
                    <mxGeometry relative="1" as="geometry">
                        <mxPoint x="260" y="585" as="targetPoint"/>
                    </mxGeometry>
                </mxCell>
                <mxCell id="28rAnF6bt6Dn-hRfDJhw-4" value="Pelicula" style="swimlane;fontStyle=1;align=center;verticalAlign=top;childLayout=stackLayout;horizontal=1;startSize=26;horizontalStack=0;resizeParent=1;resizeParentMax=0;resizeLast=0;collapsible=1;marginBottom=0;" parent="28rAnF6bt6Dn-hRfDJhw-1" vertex="1">
                    <mxGeometry x="50" y="370" width="210" height="150" as="geometry"/>
                </mxCell>
                <mxCell id="pNp_i3DSp9AEiQYBNM6J-0" value="&lt;span style=&quot;color: rgb(240 , 240 , 240) ; font-family: &amp;#34;helvetica&amp;#34; ; font-size: 12px ; font-style: normal ; font-weight: 400 ; letter-spacing: normal ; text-align: left ; text-indent: 0px ; text-transform: none ; word-spacing: 0px ; background-color: rgb(42 , 42 , 42) ; display: inline ; float: none&quot;&gt;&amp;nbsp;- genero: string&lt;/span&gt;" style="text;whiteSpace=wrap;html=1;" parent="28rAnF6bt6Dn-hRfDJhw-4" vertex="1">
                    <mxGeometry y="26" width="210" height="24" as="geometry"/>
                </mxCell>
                <mxCell id="28rAnF6bt6Dn-hRfDJhw-5" value="" style="line;strokeWidth=1;fillColor=none;align=left;verticalAlign=middle;spacingTop=-1;spacingLeft=3;spacingRight=3;rotatable=0;labelPosition=right;points=[];portConstraint=eastwest;" parent="28rAnF6bt6Dn-hRfDJhw-4" vertex="1">
                    <mxGeometry y="50" width="210" height="8" as="geometry"/>
                </mxCell>
                <mxCell id="28rAnF6bt6Dn-hRfDJhw-6" value="+ Pelicula();&#10;+ Pelicula(g: string, i: string, n: string, &#10;   c: double, d: int, f: string)&#10;+ getGenero(): string&#10;+ display(): void" style="text;strokeColor=none;fillColor=none;align=left;verticalAlign=top;spacingLeft=4;spacingRight=4;overflow=hidden;rotatable=0;points=[[0,0.5],[1,0.5]];portConstraint=eastwest;" parent="28rAnF6bt6Dn-hRfDJhw-4" vertex="1">
                    <mxGeometry y="58" width="210" height="92" as="geometry"/>
                </mxCell>
                <mxCell id="28rAnF6bt6Dn-hRfDJhw-7" style="edgeStyle=elbowEdgeStyle;html=1;elbow=vertical;endArrow=block;endFill=0;endSize=10;entryX=0.663;entryY=1.034;entryDx=0;entryDy=0;entryPerimeter=0;shadow=1;dashed=1;" parent="28rAnF6bt6Dn-hRfDJhw-1" source="28rAnF6bt6Dn-hRfDJhw-14" target="28rAnF6bt6Dn-hRfDJhw-30" edge="1">
                    <mxGeometry relative="1" as="geometry"/>
                </mxCell>
                <mxCell id="28rAnF6bt6Dn-hRfDJhw-8" style="edgeStyle=elbowEdgeStyle;elbow=vertical;html=1;entryX=1.01;entryY=0.08;entryDx=0;entryDy=0;endArrow=diamond;endFill=1;endSize=10;entryPerimeter=0;" parent="28rAnF6bt6Dn-hRfDJhw-1" source="28rAnF6bt6Dn-hRfDJhw-9" target="28rAnF6bt6Dn-hRfDJhw-19" edge="1">
                    <mxGeometry relative="1" as="geometry"/>
                </mxCell>
                <mxCell id="28rAnF6bt6Dn-hRfDJhw-9" value="Serie" style="swimlane;fontStyle=1;align=center;verticalAlign=top;childLayout=stackLayout;horizontal=1;startSize=26;horizontalStack=0;resizeParent=1;resizeParentMax=0;resizeLast=0;collapsible=1;marginBottom=0;" parent="28rAnF6bt6Dn-hRfDJhw-1" vertex="1">
                    <mxGeometry x="560" y="280" width="300" height="290" as="geometry"/>
                </mxCell>
                <mxCell id="28rAnF6bt6Dn-hRfDJhw-10" value="- id: string&#10;- titulo: string&#10;- genero: string&#10;- episodios: vector &lt;Episodio&gt;" style="text;strokeColor=none;fillColor=none;align=left;verticalAlign=top;spacingLeft=4;spacingRight=4;overflow=hidden;rotatable=0;points=[[0,0.5],[1,0.5]];portConstraint=eastwest;" parent="28rAnF6bt6Dn-hRfDJhw-9" vertex="1">
                    <mxGeometry y="26" width="300" height="64" as="geometry"/>
                </mxCell>
                <mxCell id="28rAnF6bt6Dn-hRfDJhw-11" value="" style="line;strokeWidth=1;fillColor=none;align=left;verticalAlign=middle;spacingTop=-1;spacingLeft=3;spacingRight=3;rotatable=0;labelPosition=right;points=[];portConstraint=eastwest;" parent="28rAnF6bt6Dn-hRfDJhw-9" vertex="1">
                    <mxGeometry y="90" width="300" height="8" as="geometry"/>
                </mxCell>
                <mxCell id="28rAnF6bt6Dn-hRfDJhw-12" value="+ Serie();&#10;+ Serie( i: string, t: string, g: string)&#10;+ agregarEpisodio(ep: Episodio): void&#10;+ agregarTemporada(temp: vector&lt;Episodio&gt;): void&#10;+ vaciar(): void&#10;+ getId(): string&#10;+ getNombre(): string&#10;+ getGenero(): string&#10;+ getCalificacion(calif: double): vector&lt;Episodio&gt;&#10;+ verEpisodios(): void&#10;+ verTemporada(temp: int): void&#10;+ calificarEpisodio(nombre: string, calif: double): void" style="text;strokeColor=none;fillColor=none;align=left;verticalAlign=top;spacingLeft=4;spacingRight=4;overflow=hidden;rotatable=0;points=[[0,0.5],[1,0.5]];portConstraint=eastwest;" parent="28rAnF6bt6Dn-hRfDJhw-9" vertex="1">
                    <mxGeometry y="98" width="300" height="192" as="geometry"/>
                </mxCell>
                <mxCell id="28rAnF6bt6Dn-hRfDJhw-13" style="edgeStyle=elbowEdgeStyle;elbow=vertical;html=1;endArrow=diamond;endFill=1;endSize=10;" parent="28rAnF6bt6Dn-hRfDJhw-1" source="28rAnF6bt6Dn-hRfDJhw-14" target="28rAnF6bt6Dn-hRfDJhw-9" edge="1">
                    <mxGeometry relative="1" as="geometry"/>
                </mxCell>
                <mxCell id="28rAnF6bt6Dn-hRfDJhw-14" value="Episodio" style="swimlane;fontStyle=1;align=center;verticalAlign=top;childLayout=stackLayout;horizontal=1;startSize=26;horizontalStack=0;resizeParent=1;resizeParentMax=0;resizeLast=0;collapsible=1;marginBottom=0;" parent="28rAnF6bt6Dn-hRfDJhw-1" vertex="1">
                    <mxGeometry x="290" y="370" width="200" height="150" as="geometry"/>
                </mxCell>
                <mxCell id="28rAnF6bt6Dn-hRfDJhw-15" value="- temporada: int&#10;- numero: int" style="text;strokeColor=none;fillColor=none;align=left;verticalAlign=top;spacingLeft=4;spacingRight=4;overflow=hidden;rotatable=0;points=[[0,0.5],[1,0.5]];portConstraint=eastwest;" parent="28rAnF6bt6Dn-hRfDJhw-14" vertex="1">
                    <mxGeometry y="26" width="200" height="34" as="geometry"/>
                </mxCell>
                <mxCell id="28rAnF6bt6Dn-hRfDJhw-16" value="" style="line;strokeWidth=1;fillColor=none;align=left;verticalAlign=middle;spacingTop=-1;spacingLeft=3;spacingRight=3;rotatable=0;labelPosition=right;points=[];portConstraint=eastwest;" parent="28rAnF6bt6Dn-hRfDJhw-14" vertex="1">
                    <mxGeometry y="60" width="200" height="8" as="geometry"/>
                </mxCell>
                <mxCell id="28rAnF6bt6Dn-hRfDJhw-17" value="+ Episodio();&#10;+ Episodio(t: int, num: int, i: string, &#10;   n: string, c: double, d: int, f: string)&#10;+ getTemporada(): int&#10;+ display(): void" style="text;strokeColor=none;fillColor=none;align=left;verticalAlign=top;spacingLeft=4;spacingRight=4;overflow=hidden;rotatable=0;points=[[0,0.5],[1,0.5]];portConstraint=eastwest;" parent="28rAnF6bt6Dn-hRfDJhw-14" vertex="1">
                    <mxGeometry y="68" width="200" height="82" as="geometry"/>
                </mxCell>
                <mxCell id="28rAnF6bt6Dn-hRfDJhw-18" style="edgeStyle=elbowEdgeStyle;elbow=vertical;html=1;endArrow=diamond;endFill=1;endSize=10;" parent="28rAnF6bt6Dn-hRfDJhw-1" source="28rAnF6bt6Dn-hRfDJhw-19" target="28rAnF6bt6Dn-hRfDJhw-23" edge="1">
                    <mxGeometry relative="1" as="geometry"/>
                </mxCell>
                <mxCell id="28rAnF6bt6Dn-hRfDJhw-19" value="Catalogo" style="swimlane;fontStyle=1;align=center;verticalAlign=top;childLayout=stackLayout;horizontal=1;startSize=26;horizontalStack=0;resizeParent=1;resizeParentMax=0;resizeLast=0;collapsible=1;marginBottom=0;" parent="28rAnF6bt6Dn-hRfDJhw-1" vertex="1">
                    <mxGeometry x="20" y="560" width="390" height="250" as="geometry"/>
                </mxCell>
                <mxCell id="28rAnF6bt6Dn-hRfDJhw-20" value="- peliculas: vector &lt;Pelicula&gt;&#10;- series: vector &lt;Serie&gt;" style="text;strokeColor=none;fillColor=none;align=left;verticalAlign=top;spacingLeft=4;spacingRight=4;overflow=hidden;rotatable=0;points=[[0,0.5],[1,0.5]];portConstraint=eastwest;" parent="28rAnF6bt6Dn-hRfDJhw-19" vertex="1">
                    <mxGeometry y="26" width="390" height="34" as="geometry"/>
                </mxCell>
                <mxCell id="28rAnF6bt6Dn-hRfDJhw-21" value="" style="line;strokeWidth=1;fillColor=none;align=left;verticalAlign=middle;spacingTop=-1;spacingLeft=3;spacingRight=3;rotatable=0;labelPosition=right;points=[];portConstraint=eastwest;" parent="28rAnF6bt6Dn-hRfDJhw-19" vertex="1">
                    <mxGeometry y="60" width="390" height="8" as="geometry"/>
                </mxCell>
                <mxCell id="28rAnF6bt6Dn-hRfDJhw-22" value="+ Catalogo()&#10;+ Catalogo(file: string)&#10;+ agregar(pelicula: Pelicula): void&#10;+ agregar(serie: Serie): void&#10;+ calificar(calificacion: double, nombre: string): void&#10;+ calificar(calificacion: double, nombre: string, episodio: string): void&#10;+ ver(): void&#10;+ ver(tipo: string): void&#10;+ verSerie(nombre: string): void&#10;+ verCalificacion(calif: double): void&#10;+ verCalificacion(calif: double, tipo: string)&#10;+ verGenero(genero: string)&#10;&#10;" style="text;strokeColor=none;fillColor=none;align=left;verticalAlign=top;spacingLeft=4;spacingRight=4;overflow=hidden;rotatable=0;points=[[0,0.5],[1,0.5]];portConstraint=eastwest;" parent="28rAnF6bt6Dn-hRfDJhw-19" vertex="1">
                    <mxGeometry y="68" width="390" height="182" as="geometry"/>
                </mxCell>
                <mxCell id="28rAnF6bt6Dn-hRfDJhw-23" value="Streaming" style="swimlane;fontStyle=1;align=center;verticalAlign=top;childLayout=stackLayout;horizontal=1;startSize=26;horizontalStack=0;resizeParent=1;resizeParentMax=0;resizeLast=0;collapsible=1;marginBottom=0;" parent="28rAnF6bt6Dn-hRfDJhw-1" vertex="1">
                    <mxGeometry x="520" y="645" width="190" height="160" as="geometry"/>
                </mxCell>
                <mxCell id="28rAnF6bt6Dn-hRfDJhw-24" value="- catalogo: Catalogo" style="text;strokeColor=none;fillColor=none;align=left;verticalAlign=top;spacingLeft=4;spacingRight=4;overflow=hidden;rotatable=0;points=[[0,0.5],[1,0.5]];portConstraint=eastwest;" parent="28rAnF6bt6Dn-hRfDJhw-23" vertex="1">
                    <mxGeometry y="26" width="190" height="24" as="geometry"/>
                </mxCell>
                <mxCell id="28rAnF6bt6Dn-hRfDJhw-25" value="" style="line;strokeWidth=1;fillColor=none;align=left;verticalAlign=middle;spacingTop=-1;spacingLeft=3;spacingRight=3;rotatable=0;labelPosition=right;points=[];portConstraint=eastwest;" parent="28rAnF6bt6Dn-hRfDJhw-23" vertex="1">
                    <mxGeometry y="50" width="190" height="8" as="geometry"/>
                </mxCell>
                <mxCell id="28rAnF6bt6Dn-hRfDJhw-26" value="+ iniciar(): void&#10;+ cargarCatalogo(): void&#10;+ verCalificacionOGenero(): void&#10;+ verEpisodios(): void&#10;+ verCalificacion(): void&#10;+ calificar(): void" style="text;strokeColor=none;fillColor=none;align=left;verticalAlign=top;spacingLeft=4;spacingRight=4;overflow=hidden;rotatable=0;points=[[0,0.5],[1,0.5]];portConstraint=eastwest;" parent="28rAnF6bt6Dn-hRfDJhw-23" vertex="1">
                    <mxGeometry y="58" width="190" height="102" as="geometry"/>
                </mxCell>
                <mxCell id="28rAnF6bt6Dn-hRfDJhw-27" value=" &lt;&lt; Abstract &gt;&gt; Video" style="swimlane;fontStyle=1;align=center;verticalAlign=top;childLayout=stackLayout;horizontal=1;startSize=26;horizontalStack=0;resizeParent=1;resizeParentMax=0;resizeLast=0;collapsible=1;marginBottom=0;" parent="28rAnF6bt6Dn-hRfDJhw-1" vertex="1">
                    <mxGeometry x="140" y="20" width="280" height="270" as="geometry"/>
                </mxCell>
                <mxCell id="28rAnF6bt6Dn-hRfDJhw-28" value="- id: string&#10;- nombre: string&#10;- calificacion: double&#10;- duracion: int&#10;- fechaEstreno: string" style="text;strokeColor=none;fillColor=none;align=left;verticalAlign=top;spacingLeft=4;spacingRight=4;overflow=hidden;rotatable=0;points=[[0,0.5],[1,0.5]];portConstraint=eastwest;" parent="28rAnF6bt6Dn-hRfDJhw-27" vertex="1">
                    <mxGeometry y="26" width="280" height="84" as="geometry"/>
                </mxCell>
                <mxCell id="28rAnF6bt6Dn-hRfDJhw-29" value="" style="line;strokeWidth=1;fillColor=none;align=left;verticalAlign=middle;spacingTop=-1;spacingLeft=3;spacingRight=3;rotatable=0;labelPosition=right;points=[];portConstraint=eastwest;" parent="28rAnF6bt6Dn-hRfDJhw-27" vertex="1">
                    <mxGeometry y="110" width="280" height="8" as="geometry"/>
                </mxCell>
                <mxCell id="28rAnF6bt6Dn-hRfDJhw-30" value="+ Video();&#10;+ Video(i: string, n: string, c: double, d: int, f: string)&#10;+ getId(): string&#10;+ getNombre(): string&#10;+ getCalificacion(): double&#10;+ getDuracion(): int&#10;+ getFechaEstreno(): string&#10;+ setCalificacion(cali: double): void&#10;+ &lt;&lt; virtual &gt;&gt; display(): void" style="text;strokeColor=none;fillColor=none;align=left;verticalAlign=top;spacingLeft=4;spacingRight=4;overflow=hidden;rotatable=0;points=[[0,0.5],[1,0.5]];portConstraint=eastwest;" parent="28rAnF6bt6Dn-hRfDJhw-27" vertex="1">
                    <mxGeometry y="118" width="280" height="152" as="geometry"/>
                </mxCell>
            </root>
        </mxGraphModel>
    </diagram>
    <diagram id="cOssd6TcganFGh1e2TW0" name="Con herencia">
        <mxGraphModel dx="821" dy="462" grid="1" gridSize="10" guides="1" tooltips="1" connect="1" arrows="1" fold="1" page="1" pageScale="1" pageWidth="827" pageHeight="1169" math="0" shadow="0">
            <root>
                <mxCell id="T5nm55MeUte2zlouWv02-0"/>
                <mxCell id="T5nm55MeUte2zlouWv02-1" parent="T5nm55MeUte2zlouWv02-0"/>
                <mxCell id="fVbOGYJl7N9KpL7v7ysj-24" style="edgeStyle=elbowEdgeStyle;html=1;elbow=vertical;endArrow=block;endFill=0;endSize=10;" parent="T5nm55MeUte2zlouWv02-1" source="fVbOGYJl7N9KpL7v7ysj-0" edge="1">
                    <mxGeometry relative="1" as="geometry">
                        <mxPoint x="240" y="240" as="targetPoint"/>
                    </mxGeometry>
                </mxCell>
                <mxCell id="fVbOGYJl7N9KpL7v7ysj-27" style="edgeStyle=elbowEdgeStyle;elbow=vertical;html=1;endArrow=diamond;endFill=1;endSize=10;entryX=0.25;entryY=0;entryDx=0;entryDy=0;" parent="T5nm55MeUte2zlouWv02-1" source="fVbOGYJl7N9KpL7v7ysj-0" target="fVbOGYJl7N9KpL7v7ysj-12" edge="1">
                    <mxGeometry relative="1" as="geometry">
                        <mxPoint x="260" y="585" as="targetPoint"/>
                    </mxGeometry>
                </mxCell>
                <mxCell id="fVbOGYJl7N9KpL7v7ysj-0" value="Pelicula" style="swimlane;fontStyle=1;align=center;verticalAlign=top;childLayout=stackLayout;horizontal=1;startSize=26;horizontalStack=0;resizeParent=1;resizeParentMax=0;resizeLast=0;collapsible=1;marginBottom=0;" parent="T5nm55MeUte2zlouWv02-1" vertex="1">
                    <mxGeometry x="80" y="325" width="160" height="106" as="geometry"/>
                </mxCell>
                <mxCell id="fVbOGYJl7N9KpL7v7ysj-2" value="" style="line;strokeWidth=1;fillColor=none;align=left;verticalAlign=middle;spacingTop=-1;spacingLeft=3;spacingRight=3;rotatable=0;labelPosition=right;points=[];portConstraint=eastwest;" parent="fVbOGYJl7N9KpL7v7ysj-0" vertex="1">
                    <mxGeometry y="26" width="160" height="8" as="geometry"/>
                </mxCell>
                <mxCell id="fVbOGYJl7N9KpL7v7ysj-3" value="+ Pelicula();&#10;+ Pelicula(i: string, n: string,&#10;   g: string, c: double, &#10;   d: int, f: string)" style="text;strokeColor=none;fillColor=none;align=left;verticalAlign=top;spacingLeft=4;spacingRight=4;overflow=hidden;rotatable=0;points=[[0,0.5],[1,0.5]];portConstraint=eastwest;" parent="fVbOGYJl7N9KpL7v7ysj-0" vertex="1">
                    <mxGeometry y="34" width="160" height="72" as="geometry"/>
                </mxCell>
                <mxCell id="fVbOGYJl7N9KpL7v7ysj-25" style="edgeStyle=elbowEdgeStyle;html=1;elbow=vertical;endArrow=block;endFill=0;endSize=10;entryX=0.663;entryY=1.034;entryDx=0;entryDy=0;entryPerimeter=0;" parent="T5nm55MeUte2zlouWv02-1" source="fVbOGYJl7N9KpL7v7ysj-8" target="QQcUhdyStFtbgYhbvC0G-3" edge="1">
                    <mxGeometry relative="1" as="geometry"/>
                </mxCell>
                <mxCell id="fVbOGYJl7N9KpL7v7ysj-28" style="edgeStyle=elbowEdgeStyle;elbow=vertical;html=1;entryX=0.75;entryY=0;entryDx=0;entryDy=0;endArrow=diamond;endFill=1;endSize=10;" parent="T5nm55MeUte2zlouWv02-1" source="fVbOGYJl7N9KpL7v7ysj-4" target="fVbOGYJl7N9KpL7v7ysj-12" edge="1">
                    <mxGeometry relative="1" as="geometry"/>
                </mxCell>
                <mxCell id="fVbOGYJl7N9KpL7v7ysj-4" value="Serie" style="swimlane;fontStyle=1;align=center;verticalAlign=top;childLayout=stackLayout;horizontal=1;startSize=26;horizontalStack=0;resizeParent=1;resizeParentMax=0;resizeLast=0;collapsible=1;marginBottom=0;" parent="T5nm55MeUte2zlouWv02-1" vertex="1">
                    <mxGeometry x="550" y="325" width="170" height="110" as="geometry"/>
                </mxCell>
                <mxCell id="fVbOGYJl7N9KpL7v7ysj-5" value="- titulo: string&#10;- episodios: vector &lt;Episodio&gt;" style="text;strokeColor=none;fillColor=none;align=left;verticalAlign=top;spacingLeft=4;spacingRight=4;overflow=hidden;rotatable=0;points=[[0,0.5],[1,0.5]];portConstraint=eastwest;" parent="fVbOGYJl7N9KpL7v7ysj-4" vertex="1">
                    <mxGeometry y="26" width="170" height="34" as="geometry"/>
                </mxCell>
                <mxCell id="fVbOGYJl7N9KpL7v7ysj-6" value="" style="line;strokeWidth=1;fillColor=none;align=left;verticalAlign=middle;spacingTop=-1;spacingLeft=3;spacingRight=3;rotatable=0;labelPosition=right;points=[];portConstraint=eastwest;" parent="fVbOGYJl7N9KpL7v7ysj-4" vertex="1">
                    <mxGeometry y="60" width="170" height="8" as="geometry"/>
                </mxCell>
                <mxCell id="fVbOGYJl7N9KpL7v7ysj-7" value="+ verEpisodios(): void&#10;+ verTemporada(temp: int): void" style="text;strokeColor=none;fillColor=none;align=left;verticalAlign=top;spacingLeft=4;spacingRight=4;overflow=hidden;rotatable=0;points=[[0,0.5],[1,0.5]];portConstraint=eastwest;" parent="fVbOGYJl7N9KpL7v7ysj-4" vertex="1">
                    <mxGeometry y="68" width="170" height="42" as="geometry"/>
                </mxCell>
                <mxCell id="fVbOGYJl7N9KpL7v7ysj-26" style="edgeStyle=elbowEdgeStyle;elbow=vertical;html=1;endArrow=diamond;endFill=1;endSize=10;" parent="T5nm55MeUte2zlouWv02-1" source="fVbOGYJl7N9KpL7v7ysj-8" target="fVbOGYJl7N9KpL7v7ysj-4" edge="1">
                    <mxGeometry relative="1" as="geometry"/>
                </mxCell>
                <mxCell id="fVbOGYJl7N9KpL7v7ysj-8" value="Episodio" style="swimlane;fontStyle=1;align=center;verticalAlign=top;childLayout=stackLayout;horizontal=1;startSize=26;horizontalStack=0;resizeParent=1;resizeParentMax=0;resizeLast=0;collapsible=1;marginBottom=0;" parent="T5nm55MeUte2zlouWv02-1" vertex="1">
                    <mxGeometry x="320" y="325" width="160" height="150" as="geometry"/>
                </mxCell>
                <mxCell id="fVbOGYJl7N9KpL7v7ysj-9" value="- temporada: int&#10;- numero: int" style="text;strokeColor=none;fillColor=none;align=left;verticalAlign=top;spacingLeft=4;spacingRight=4;overflow=hidden;rotatable=0;points=[[0,0.5],[1,0.5]];portConstraint=eastwest;" parent="fVbOGYJl7N9KpL7v7ysj-8" vertex="1">
                    <mxGeometry y="26" width="160" height="34" as="geometry"/>
                </mxCell>
                <mxCell id="fVbOGYJl7N9KpL7v7ysj-10" value="" style="line;strokeWidth=1;fillColor=none;align=left;verticalAlign=middle;spacingTop=-1;spacingLeft=3;spacingRight=3;rotatable=0;labelPosition=right;points=[];portConstraint=eastwest;" parent="fVbOGYJl7N9KpL7v7ysj-8" vertex="1">
                    <mxGeometry y="60" width="160" height="8" as="geometry"/>
                </mxCell>
                <mxCell id="fVbOGYJl7N9KpL7v7ysj-11" value="+ Episodio();&#10;+ Episodio(t: int, num: int, &#10;   i: string, n: string,&#10;   g: string, c: double,&#10;   d: int, f: string)" style="text;strokeColor=none;fillColor=none;align=left;verticalAlign=top;spacingLeft=4;spacingRight=4;overflow=hidden;rotatable=0;points=[[0,0.5],[1,0.5]];portConstraint=eastwest;" parent="fVbOGYJl7N9KpL7v7ysj-8" vertex="1">
                    <mxGeometry y="68" width="160" height="82" as="geometry"/>
                </mxCell>
                <mxCell id="ZW0gnfVC6tNqK-3iAM7L-2" style="edgeStyle=elbowEdgeStyle;elbow=vertical;html=1;endArrow=diamond;endFill=1;endSize=10;" parent="T5nm55MeUte2zlouWv02-1" source="fVbOGYJl7N9KpL7v7ysj-12" target="fVbOGYJl7N9KpL7v7ysj-16" edge="1">
                    <mxGeometry relative="1" as="geometry"/>
                </mxCell>
                <mxCell id="fVbOGYJl7N9KpL7v7ysj-12" value="Catalogo" style="swimlane;fontStyle=1;align=center;verticalAlign=top;childLayout=stackLayout;horizontal=1;startSize=26;horizontalStack=0;resizeParent=1;resizeParentMax=0;resizeLast=0;collapsible=1;marginBottom=0;" parent="T5nm55MeUte2zlouWv02-1" vertex="1">
                    <mxGeometry x="160" y="640" width="240" height="140" as="geometry"/>
                </mxCell>
                <mxCell id="fVbOGYJl7N9KpL7v7ysj-13" value="- peliculas: vector &lt;Pelicula&gt;&#10;- series: vector &lt;Serie&gt;" style="text;strokeColor=none;fillColor=none;align=left;verticalAlign=top;spacingLeft=4;spacingRight=4;overflow=hidden;rotatable=0;points=[[0,0.5],[1,0.5]];portConstraint=eastwest;" parent="fVbOGYJl7N9KpL7v7ysj-12" vertex="1">
                    <mxGeometry y="26" width="240" height="34" as="geometry"/>
                </mxCell>
                <mxCell id="fVbOGYJl7N9KpL7v7ysj-14" value="" style="line;strokeWidth=1;fillColor=none;align=left;verticalAlign=middle;spacingTop=-1;spacingLeft=3;spacingRight=3;rotatable=0;labelPosition=right;points=[];portConstraint=eastwest;" parent="fVbOGYJl7N9KpL7v7ysj-12" vertex="1">
                    <mxGeometry y="60" width="240" height="8" as="geometry"/>
                </mxCell>
                <mxCell id="fVbOGYJl7N9KpL7v7ysj-15" value="+ cargarCatalogo(file: string): void&#10;+ verCalificacion(calif: int): void&#10;+ verCalificacion(calif: int, tipo: string): void&#10;+ verGenero(): void&#10;" style="text;strokeColor=none;fillColor=none;align=left;verticalAlign=top;spacingLeft=4;spacingRight=4;overflow=hidden;rotatable=0;points=[[0,0.5],[1,0.5]];portConstraint=eastwest;" parent="fVbOGYJl7N9KpL7v7ysj-12" vertex="1">
                    <mxGeometry y="68" width="240" height="72" as="geometry"/>
                </mxCell>
                <mxCell id="fVbOGYJl7N9KpL7v7ysj-16" value="Streaming" style="swimlane;fontStyle=1;align=center;verticalAlign=top;childLayout=stackLayout;horizontal=1;startSize=26;horizontalStack=0;resizeParent=1;resizeParentMax=0;resizeLast=0;collapsible=1;marginBottom=0;" parent="T5nm55MeUte2zlouWv02-1" vertex="1">
                    <mxGeometry x="520" y="645" width="160" height="110" as="geometry"/>
                </mxCell>
                <mxCell id="fVbOGYJl7N9KpL7v7ysj-17" value="- catalogo: Catalogo" style="text;strokeColor=none;fillColor=none;align=left;verticalAlign=top;spacingLeft=4;spacingRight=4;overflow=hidden;rotatable=0;points=[[0,0.5],[1,0.5]];portConstraint=eastwest;" parent="fVbOGYJl7N9KpL7v7ysj-16" vertex="1">
                    <mxGeometry y="26" width="160" height="24" as="geometry"/>
                </mxCell>
                <mxCell id="fVbOGYJl7N9KpL7v7ysj-18" value="" style="line;strokeWidth=1;fillColor=none;align=left;verticalAlign=middle;spacingTop=-1;spacingLeft=3;spacingRight=3;rotatable=0;labelPosition=right;points=[];portConstraint=eastwest;" parent="fVbOGYJl7N9KpL7v7ysj-16" vertex="1">
                    <mxGeometry y="50" width="160" height="8" as="geometry"/>
                </mxCell>
                <mxCell id="fVbOGYJl7N9KpL7v7ysj-19" value="+ Streaming()&#10;+ Streaming(cat: Catalogo)&#10;+ iniciar(): void" style="text;strokeColor=none;fillColor=none;align=left;verticalAlign=top;spacingLeft=4;spacingRight=4;overflow=hidden;rotatable=0;points=[[0,0.5],[1,0.5]];portConstraint=eastwest;" parent="fVbOGYJl7N9KpL7v7ysj-16" vertex="1">
                    <mxGeometry y="58" width="160" height="52" as="geometry"/>
                </mxCell>
                <mxCell id="QQcUhdyStFtbgYhbvC0G-0" value="Video" style="swimlane;fontStyle=1;align=center;verticalAlign=top;childLayout=stackLayout;horizontal=1;startSize=26;horizontalStack=0;resizeParent=1;resizeParentMax=0;resizeLast=0;collapsible=1;marginBottom=0;" parent="T5nm55MeUte2zlouWv02-1" vertex="1">
                    <mxGeometry x="160" y="40" width="240" height="200" as="geometry"/>
                </mxCell>
                <mxCell id="QQcUhdyStFtbgYhbvC0G-1" value="- id: string&#10;- nombre: string&#10;- genero: string&#10;- calificacion: double&#10;- duracion: int&#10;- fechaEstreno: string" style="text;strokeColor=none;fillColor=none;align=left;verticalAlign=top;spacingLeft=4;spacingRight=4;overflow=hidden;rotatable=0;points=[[0,0.5],[1,0.5]];portConstraint=eastwest;" parent="QQcUhdyStFtbgYhbvC0G-0" vertex="1">
                    <mxGeometry y="26" width="240" height="94" as="geometry"/>
                </mxCell>
                <mxCell id="QQcUhdyStFtbgYhbvC0G-2" value="" style="line;strokeWidth=1;fillColor=none;align=left;verticalAlign=middle;spacingTop=-1;spacingLeft=3;spacingRight=3;rotatable=0;labelPosition=right;points=[];portConstraint=eastwest;" parent="QQcUhdyStFtbgYhbvC0G-0" vertex="1">
                    <mxGeometry y="120" width="240" height="8" as="geometry"/>
                </mxCell>
                <mxCell id="QQcUhdyStFtbgYhbvC0G-3" value="+ Video();&#10;+ Video(i: string, n: string, g: string,&#10;   c: double, d: int, f: string)&#10;+ calificar(): void" style="text;strokeColor=none;fillColor=none;align=left;verticalAlign=top;spacingLeft=4;spacingRight=4;overflow=hidden;rotatable=0;points=[[0,0.5],[1,0.5]];portConstraint=eastwest;" parent="QQcUhdyStFtbgYhbvC0G-0" vertex="1">
                    <mxGeometry y="128" width="240" height="72" as="geometry"/>
                </mxCell>
            </root>
        </mxGraphModel>
    </diagram>
    <diagram id="g5spBLx_vvhdmmsODNRa" name="Sin herencia">
        <mxGraphModel dx="821" dy="462" grid="1" gridSize="10" guides="1" tooltips="1" connect="1" arrows="1" fold="1" page="1" pageScale="1" pageWidth="850" pageHeight="1100" math="0" shadow="0">
            <root>
                <mxCell id="0"/>
                <mxCell id="1" parent="0"/>
                <mxCell id="QxtTkssoRdPkQcseXRFo-1" style="edgeStyle=elbowEdgeStyle;elbow=vertical;html=1;entryX=0.25;entryY=0;entryDx=0;entryDy=0;endArrow=diamond;endFill=1;endSize=10;" parent="1" source="AoSy73QFJX3JCVjSRs7S-1" target="AoSy73QFJX3JCVjSRs7S-13" edge="1">
                    <mxGeometry relative="1" as="geometry">
                        <Array as="points">
                            <mxPoint x="140" y="320"/>
                        </Array>
                    </mxGeometry>
                </mxCell>
                <mxCell id="AoSy73QFJX3JCVjSRs7S-1" value="Pelicula" style="swimlane;fontStyle=1;align=center;verticalAlign=top;childLayout=stackLayout;horizontal=1;startSize=26;horizontalStack=0;resizeParent=1;resizeParentMax=0;resizeLast=0;collapsible=1;marginBottom=0;" parent="1" vertex="1">
                    <mxGeometry x="40" y="40" width="160" height="210" as="geometry"/>
                </mxCell>
                <mxCell id="AoSy73QFJX3JCVjSRs7S-2" value="- id: string&#10;- nombre: string&#10;- genero: string&#10;- calificacion: double&#10;- duracion: int&#10;- fechaEstreno: string" style="text;strokeColor=none;fillColor=none;align=left;verticalAlign=top;spacingLeft=4;spacingRight=4;overflow=hidden;rotatable=0;points=[[0,0.5],[1,0.5]];portConstraint=eastwest;" parent="AoSy73QFJX3JCVjSRs7S-1" vertex="1">
                    <mxGeometry y="26" width="160" height="94" as="geometry"/>
                </mxCell>
                <mxCell id="AoSy73QFJX3JCVjSRs7S-3" value="" style="line;strokeWidth=1;fillColor=none;align=left;verticalAlign=middle;spacingTop=-1;spacingLeft=3;spacingRight=3;rotatable=0;labelPosition=right;points=[];portConstraint=eastwest;" parent="AoSy73QFJX3JCVjSRs7S-1" vertex="1">
                    <mxGeometry y="120" width="160" height="8" as="geometry"/>
                </mxCell>
                <mxCell id="AoSy73QFJX3JCVjSRs7S-4" value="+ Pelicula();&#10;+ Pelicula(i: string, n: string,&#10;   g: string, c: double, &#10;   d: int, f: string)&#10;+ calificar(): void" style="text;strokeColor=none;fillColor=none;align=left;verticalAlign=top;spacingLeft=4;spacingRight=4;overflow=hidden;rotatable=0;points=[[0,0.5],[1,0.5]];portConstraint=eastwest;" parent="AoSy73QFJX3JCVjSRs7S-1" vertex="1">
                    <mxGeometry y="128" width="160" height="82" as="geometry"/>
                </mxCell>
                <mxCell id="YCSqcsDj1qF5dxDRjAv_-1" style="edgeStyle=elbowEdgeStyle;elbow=vertical;html=1;entryX=0.75;entryY=0;entryDx=0;entryDy=0;endArrow=diamond;endFill=1;endSize=10;" parent="1" source="AoSy73QFJX3JCVjSRs7S-5" target="AoSy73QFJX3JCVjSRs7S-13" edge="1">
                    <mxGeometry relative="1" as="geometry">
                        <Array as="points">
                            <mxPoint x="440" y="320"/>
                        </Array>
                    </mxGeometry>
                </mxCell>
                <mxCell id="AoSy73QFJX3JCVjSRs7S-5" value="Serie" style="swimlane;fontStyle=1;align=center;verticalAlign=top;childLayout=stackLayout;horizontal=1;startSize=26;horizontalStack=0;resizeParent=1;resizeParentMax=0;resizeLast=0;collapsible=1;marginBottom=0;" parent="1" vertex="1">
                    <mxGeometry x="510" y="40" width="170" height="110" as="geometry"/>
                </mxCell>
                <mxCell id="AoSy73QFJX3JCVjSRs7S-6" value="- titulo: string&#10;- episodios: vector &lt;Episodio&gt;" style="text;strokeColor=none;fillColor=none;align=left;verticalAlign=top;spacingLeft=4;spacingRight=4;overflow=hidden;rotatable=0;points=[[0,0.5],[1,0.5]];portConstraint=eastwest;" parent="AoSy73QFJX3JCVjSRs7S-5" vertex="1">
                    <mxGeometry y="26" width="170" height="34" as="geometry"/>
                </mxCell>
                <mxCell id="AoSy73QFJX3JCVjSRs7S-7" value="" style="line;strokeWidth=1;fillColor=none;align=left;verticalAlign=middle;spacingTop=-1;spacingLeft=3;spacingRight=3;rotatable=0;labelPosition=right;points=[];portConstraint=eastwest;" parent="AoSy73QFJX3JCVjSRs7S-5" vertex="1">
                    <mxGeometry y="60" width="170" height="8" as="geometry"/>
                </mxCell>
                <mxCell id="AoSy73QFJX3JCVjSRs7S-8" value="+ verEpisodios(): void&#10;+ verTemporada(temp: int): void" style="text;strokeColor=none;fillColor=none;align=left;verticalAlign=top;spacingLeft=4;spacingRight=4;overflow=hidden;rotatable=0;points=[[0,0.5],[1,0.5]];portConstraint=eastwest;" parent="AoSy73QFJX3JCVjSRs7S-5" vertex="1">
                    <mxGeometry y="68" width="170" height="42" as="geometry"/>
                </mxCell>
                <mxCell id="Yo_bEBfc0LVFmbFADjJh-1" style="edgeStyle=elbowEdgeStyle;elbow=vertical;html=1;endArrow=diamond;endFill=1;endSize=10;" parent="1" source="AoSy73QFJX3JCVjSRs7S-9" target="AoSy73QFJX3JCVjSRs7S-5" edge="1">
                    <mxGeometry relative="1" as="geometry"/>
                </mxCell>
                <mxCell id="AoSy73QFJX3JCVjSRs7S-9" value="Episodio" style="swimlane;fontStyle=1;align=center;verticalAlign=top;childLayout=stackLayout;horizontal=1;startSize=26;horizontalStack=0;resizeParent=1;resizeParentMax=0;resizeLast=0;collapsible=1;marginBottom=0;" parent="1" vertex="1">
                    <mxGeometry x="280" y="40" width="160" height="260" as="geometry"/>
                </mxCell>
                <mxCell id="AoSy73QFJX3JCVjSRs7S-10" value="- id: string&#10;- nombre: string&#10;- genero: string&#10;- calificacion: double&#10;- duracion: int&#10;- fechaEstreno: string&#10;- temporada: int&#10;- numero: int" style="text;strokeColor=none;fillColor=none;align=left;verticalAlign=top;spacingLeft=4;spacingRight=4;overflow=hidden;rotatable=0;points=[[0,0.5],[1,0.5]];portConstraint=eastwest;" parent="AoSy73QFJX3JCVjSRs7S-9" vertex="1">
                    <mxGeometry y="26" width="160" height="124" as="geometry"/>
                </mxCell>
                <mxCell id="AoSy73QFJX3JCVjSRs7S-11" value="" style="line;strokeWidth=1;fillColor=none;align=left;verticalAlign=middle;spacingTop=-1;spacingLeft=3;spacingRight=3;rotatable=0;labelPosition=right;points=[];portConstraint=eastwest;" parent="AoSy73QFJX3JCVjSRs7S-9" vertex="1">
                    <mxGeometry y="150" width="160" height="8" as="geometry"/>
                </mxCell>
                <mxCell id="AoSy73QFJX3JCVjSRs7S-12" value="+ Episodio();&#10;+ Episodio(t: int, num: int, &#10;   i: string, n: string,&#10;   g: string, c: double,&#10;   d: int, f: string)&#10;+ calificar(): void" style="text;strokeColor=none;fillColor=none;align=left;verticalAlign=top;spacingLeft=4;spacingRight=4;overflow=hidden;rotatable=0;points=[[0,0.5],[1,0.5]];portConstraint=eastwest;" parent="AoSy73QFJX3JCVjSRs7S-9" vertex="1">
                    <mxGeometry y="158" width="160" height="102" as="geometry"/>
                </mxCell>
                <mxCell id="ZbAvCyaeQ8baSzAl8Qjd-1" style="edgeStyle=elbowEdgeStyle;elbow=vertical;html=1;endArrow=diamond;endFill=1;endSize=10;" parent="1" source="AoSy73QFJX3JCVjSRs7S-13" target="AoSy73QFJX3JCVjSRs7S-17" edge="1">
                    <mxGeometry relative="1" as="geometry"/>
                </mxCell>
                <mxCell id="AoSy73QFJX3JCVjSRs7S-13" value="Catalogo" style="swimlane;fontStyle=1;align=center;verticalAlign=top;childLayout=stackLayout;horizontal=1;startSize=26;horizontalStack=0;resizeParent=1;resizeParentMax=0;resizeLast=0;collapsible=1;marginBottom=0;" parent="1" vertex="1">
                    <mxGeometry x="120" y="360" width="240" height="140" as="geometry"/>
                </mxCell>
                <mxCell id="AoSy73QFJX3JCVjSRs7S-14" value="- peliculas: vector &lt;Pelicula&gt;&#10;- series: vector &lt;Serie&gt;" style="text;strokeColor=none;fillColor=none;align=left;verticalAlign=top;spacingLeft=4;spacingRight=4;overflow=hidden;rotatable=0;points=[[0,0.5],[1,0.5]];portConstraint=eastwest;" parent="AoSy73QFJX3JCVjSRs7S-13" vertex="1">
                    <mxGeometry y="26" width="240" height="34" as="geometry"/>
                </mxCell>
                <mxCell id="AoSy73QFJX3JCVjSRs7S-15" value="" style="line;strokeWidth=1;fillColor=none;align=left;verticalAlign=middle;spacingTop=-1;spacingLeft=3;spacingRight=3;rotatable=0;labelPosition=right;points=[];portConstraint=eastwest;" parent="AoSy73QFJX3JCVjSRs7S-13" vertex="1">
                    <mxGeometry y="60" width="240" height="8" as="geometry"/>
                </mxCell>
                <mxCell id="AoSy73QFJX3JCVjSRs7S-16" value="+ cargarCatalogo(file: string): void&#10;+ verCalificacion(calif: int): void&#10;+ verCalificacion(calif: int, tipo: string): void&#10;+ verGenero(): void&#10;" style="text;strokeColor=none;fillColor=none;align=left;verticalAlign=top;spacingLeft=4;spacingRight=4;overflow=hidden;rotatable=0;points=[[0,0.5],[1,0.5]];portConstraint=eastwest;" parent="AoSy73QFJX3JCVjSRs7S-13" vertex="1">
                    <mxGeometry y="68" width="240" height="72" as="geometry"/>
                </mxCell>
                <mxCell id="AoSy73QFJX3JCVjSRs7S-17" value="Streaming" style="swimlane;fontStyle=1;align=center;verticalAlign=top;childLayout=stackLayout;horizontal=1;startSize=26;horizontalStack=0;resizeParent=1;resizeParentMax=0;resizeLast=0;collapsible=1;marginBottom=0;" parent="1" vertex="1">
                    <mxGeometry x="480" y="365" width="160" height="110" as="geometry"/>
                </mxCell>
                <mxCell id="AoSy73QFJX3JCVjSRs7S-18" value="- catalogo: Catalogo" style="text;strokeColor=none;fillColor=none;align=left;verticalAlign=top;spacingLeft=4;spacingRight=4;overflow=hidden;rotatable=0;points=[[0,0.5],[1,0.5]];portConstraint=eastwest;" parent="AoSy73QFJX3JCVjSRs7S-17" vertex="1">
                    <mxGeometry y="26" width="160" height="24" as="geometry"/>
                </mxCell>
                <mxCell id="AoSy73QFJX3JCVjSRs7S-19" value="" style="line;strokeWidth=1;fillColor=none;align=left;verticalAlign=middle;spacingTop=-1;spacingLeft=3;spacingRight=3;rotatable=0;labelPosition=right;points=[];portConstraint=eastwest;" parent="AoSy73QFJX3JCVjSRs7S-17" vertex="1">
                    <mxGeometry y="50" width="160" height="8" as="geometry"/>
                </mxCell>
                <mxCell id="AoSy73QFJX3JCVjSRs7S-20" value="+ Streaming()&#10;+ Streaming(cat: Catalogo)&#10;+ iniciar(): void" style="text;strokeColor=none;fillColor=none;align=left;verticalAlign=top;spacingLeft=4;spacingRight=4;overflow=hidden;rotatable=0;points=[[0,0.5],[1,0.5]];portConstraint=eastwest;" parent="AoSy73QFJX3JCVjSRs7S-17" vertex="1">
                    <mxGeometry y="58" width="160" height="52" as="geometry"/>
                </mxCell>
            </root>
        </mxGraphModel>
    </diagram>
</mxfile>